<?xml version="1.0" encoding="UTF-8"?>
<svg width="256px" height="256px" viewBox="0 0 256 256" version="1.1" xmlns="http://www.w3.org/2000/svg" xmlns:xlink="http://www.w3.org/1999/xlink">
    <!-- Generator: Sketch 49.3 (51167) - http://www.bohemiancoding.com/sketch -->
    <title>Untitled</title>
    <desc>Created with Sketch.</desc>
    <defs></defs>
    <g id="Page-1" stroke="none" stroke-width="1" fill="none" fill-rule="evenodd">
        <g id="赞同" transform="translate(8.000000, 8.000000)" fill="#646464" fill-rule="nonzero">
            <path d="M199.10574,73.7770262 L164.708157,73.7770262 C165.636254,68.0951806 166.129305,62.3843459 166.158308,56.6155333 L166.158308,38.178524 C166.158308,17.1035149 149.046526,0 127.961329,0 C106.876133,0 89.7643505,17.1035149 89.7643505,38.178524 L89.7643505,56.6155333 C89.7643505,76.0091799 74.01571,89.5470467 51.4803625,89.5470467 L30.3661631,89.5470467 C13.6024169,89.5760358 0.0290030211,103.142892 0,119.869549 L0,209.532552 C0,226.25921 13.5734139,239.826066 30.3081571,239.855055 L55.3957704,239.855055 L55.3957704,107.955067 C86.1969789,106.302694 108.152266,85.2856625 108.152266,56.7025003 L108.152266,38.236502 C108.152266,27.3076459 117.02719,18.4370093 127.961329,18.4370093 C138.895468,18.4370093 147.770393,27.3076459 147.770393,38.236502 L147.770393,56.7025003 C147.770393,64.7614446 146.668278,72.7624109 144.464048,80.5024761 L141.012689,92.3010025 L199.221752,92.3010025 C211.606042,92.3010025 221.641088,102.360188 221.670091,114.738495 C221.670091,117.898297 220.712991,128.015461 211.954079,152.974997 L211.606042,154.018601 C189.273716,221.562991 186.373414,221.562991 167.492447,221.562991 L88.2851964,221.562991 C83.1806647,221.562991 79.0622356,225.67943 79.0622356,230.781495 C79.0622356,235.883561 83.1806647,240 88.2851964,240 L167.434441,240 C199.917825,240 206.530514,227.882595 228.949849,159.90337 L229.239879,159.091678 C234.112387,145.147965 240,126.131175 240,114.738495 C239.970997,92.1270685 221.670091,73.8350042 199.10574,73.7770262 Z M36.8918429,108.013045 L36.8918429,221.447035 L30.2501511,221.447035 C23.6954683,221.418046 18.3879154,216.113057 18.3589124,209.561541 L18.3589124,119.869549 C18.3879154,113.318034 23.6954683,108.013045 30.2501511,107.984056 L36.8918429,108.013045 Z" id="Shape"></path>
        </g>
    </g>
</svg>