<?xml version="1.0" encoding="UTF-8"?>
<svg width="256px" height="256px" viewBox="0 0 256 256" version="1.1" xmlns="http://www.w3.org/2000/svg" xmlns:xlink="http://www.w3.org/1999/xlink">
    <!-- Generator: Sketch 49.3 (51167) - http://www.bohemiancoding.com/sketch -->
    <title>Untitled 2</title>
    <desc>Created with Sketch.</desc>
    <defs></defs>
    <g id="Page-1" stroke="none" stroke-width="1" fill="none" fill-rule="evenodd">
        <g id="回答-(1)" transform="translate(0.000000, 13.000000)" fill="#646464" fill-rule="nonzero">
            <path d="M187.883922,114.999216 C160.577255,170.014118 83.0745098,167.203137 58.9803922,110.983529 C55.3662745,102.550588 42.9176471,109.778824 46.5317647,118.211765 C59.3819608,147.927843 88.294902,168.407843 120.821961,170.014118 C154.553725,171.620392 185.47451,151.943529 200.332549,122.227451 C204.348235,114.196078 191.899608,106.967843 187.883922,114.999216 Z" id="Shape"></path>
            <path d="M214.78902,28.6619608 C175.033725,-1.8572549 118.01098,-7.88078431 71.8305882,10.9929412 C30.4690196,27.8588235 -3.66431373,66.8109804 0.351372549,113.79451 C1.55607843,127.849412 5.97333333,141.101176 12.8,153.148235 C16.012549,158.770196 20.0282353,163.990588 24.0439216,168.809412 C27.2564706,172.825098 36.492549,178.848627 38.0988235,181.258039 C41.3113725,186.076863 40.9098039,198.927059 41.7129412,204.950588 C42.5160784,211.375686 43.7207843,217.800784 44.5239216,224.627451 C45.3270588,229.446275 51.3505882,230.65098 54.9647059,229.044706 C69.0196078,222.619608 83.0745098,216.19451 96.7278431,209.769412 C105.160784,205.753725 97.932549,193.706667 89.4996078,197.320784 C78.6572549,202.541176 67.814902,207.36 56.5709804,212.580392 C55.3662745,204.147451 54.1615686,195.71451 52.5552941,186.88 C52.1537255,183.265882 52.1537255,178.447059 50.547451,175.636078 C48.1380392,171.620392 42.9176471,168.809412 39.705098,165.596863 C35.2878431,160.376471 30.8705882,155.156078 26.854902,149.132549 C2.35921569,110.581961 16.8156863,63.5984314 52.1537255,37.8980392 C89.4996078,10.9929412 142.506667,6.9772549 184.269804,26.6541176 C220.41098,43.52 248.922353,80.8658824 240.087843,122.227451 C229.24549,172.825098 175.435294,198.52549 128.050196,198.927059 C118.814118,198.927059 118.814118,213.383529 128.050196,213.383529 C175.435294,212.981961 226.032941,190.895686 247.316078,145.92 C266.992941,103.353725 250.930196,56.3701961 214.78902,28.6619608 Z" id="Shape"></path>
        </g>
    </g>
</svg>