<?xml version="1.0" encoding="UTF-8"?>
<svg width="256px" height="256px" viewBox="0 0 256 256" version="1.1" xmlns="http://www.w3.org/2000/svg" xmlns:xlink="http://www.w3.org/1999/xlink">
    <!-- Generator: Sketch 49.3 (51167) - http://www.bohemiancoding.com/sketch -->
    <title>Untitled</title>
    <desc>Created with Sketch.</desc>
    <defs></defs>
    <g id="Page-1" stroke="none" stroke-width="1" fill="none" fill-rule="evenodd">
        <g id="提问" transform="translate(0.000000, 12.000000)" fill="#646464" fill-rule="nonzero">
            <path d="M196.081571,173.101322 C207.234621,155.920188 213.163138,135.872141 213.148158,115.388448 C213.148158,56.6409202 165.354568,8.83542048 106.617461,8.83542048 C47.8580232,8.83542048 0.054012231,56.6394315 0.054012231,115.388448 C0.054012231,174.113646 47.8476023,221.919146 106.60704,221.951897 C122.637321,221.948653 138.451044,218.249683 152.819619,211.142364 L186.629743,221.307285 C188.032738,221.722653 189.486853,221.940119 190.949983,221.953386 C194.907061,221.954071 198.699671,220.370332 201.481127,217.555733 C205.362624,213.69165 206.800698,208.004016 205.222259,202.75943 L196.081571,173.101322 Z M189.781345,206.388909 L151.717972,194.833531 L148.834338,196.369881 C135.80893,203.198572 121.325809,206.777344 106.61895,206.801282 C56.2320247,206.76853 15.2299361,165.754532 15.2299361,115.378028 C15.2299361,65.0015236 56.2320247,23.9994347 106.61895,23.9994347 C157.005875,23.9994347 198.019873,65.0015233 198.030294,115.355697 C198.054368,133.898486 192.371863,151.999548 181.754213,167.201559 L179.750408,170.552648 L189.781345,206.388909 Z" id="Shape"></path>
            <path d="M149.012984,156.201471 C148.055742,155.288891 146.174011,154.075591 143.546436,152.671736 C141.308902,151.436106 139.215774,150.200475 137.134556,148.274083 C143.247205,141.171441 146.340747,131.63029 146.340747,119.885845 C146.340747,111.825962 144.849058,104.700989 141.898432,98.6895731 C138.937385,92.6662468 134.505491,87.9470318 128.717382,84.6837763 C122.950114,81.4100999 115.971035,79.7635853 107.954324,79.7635853 C102.054561,79.7635853 96.699666,80.6984961 92.0459542,82.5474754 C87.5145413,84.3175343 83.4365931,87.0790638 80.1109553,90.6296897 C76.8819403,94.1028533 74.3660181,98.4007631 72.6406016,103.387946 C70.9479368,108.330468 70.080018,113.841677 70.080018,119.786102 C70.0368847,125.285347 70.8675131,130.75654 72.5408578,135.995191 C74.0653012,140.786597 76.571471,145.207758 79.8995581,148.976755 C83.2467388,152.648077 87.3899511,155.504429 92.011714,157.326937 C96.7875001,159.24142 102.242138,160.210571 108.255044,160.210571 C115.402347,160.210571 121.570078,158.985361 126.991965,156.615333 C129.287785,158.248596 131.622767,159.826098 133.994863,161.346457 C135.916922,162.62716 137.930067,163.765587 140.01819,164.752629 C141.44139,165.474213 143.000734,165.887637 144.594488,165.965929 C146.203868,165.976402 147.740303,165.29547 148.813496,164.096107 C149.833534,163.08653 150.440737,161.733061 150.516582,160.299893 C150.515093,158.572988 150.014886,157.203373 149.012984,156.201471 Z M127.871794,131.353389 C126.969635,134.304015 125.61193,136.90926 123.274653,139.213785 C116.082688,134.181941 111.016603,131.743432 107.777167,131.743432 C106.541174,131.752656 105.356544,132.239095 104.470739,133.101136 C103.458416,134.025626 102.95672,135.127273 102.95672,136.362903 C102.895748,137.668096 103.504029,138.914399 104.570483,139.669331 C106.195387,140.778534 107.912171,141.746746 109.702071,142.563386 C111.305413,143.353892 112.74202,144.166728 113.888328,145.74774 C111.884522,146.349179 109.970039,146.649899 108.177631,146.649899 C102.362364,146.742023 96.8203871,144.186294 93.114849,139.703571 C89.1295685,135.104942 87.1034323,128.414673 87.1034323,119.798012 C87.0557934,115.912475 87.600662,112.041825 88.7171957,108.320047 C89.5968604,105.280142 91.0854572,102.450846 93.0925184,100.004105 C94.8739326,97.8872583 97.1174581,96.2075426 99.6502918,95.0943349 C102.178124,93.9703578 104.972435,93.4016702 107.978143,93.4016702 C111.939604,93.325746 115.841517,94.3842196 119.22238,96.4520398 C122.576886,98.6458101 125.191781,101.800286 126.725486,105.503405 C128.495564,109.511016 129.385813,114.321042 129.385813,119.808433 C129.373903,124.161425 128.861786,128.046961 127.871794,131.353389 Z M233.717683,207.798718 C232.315317,207.798718 230.878711,207.575411 229.419774,207.152618 L212.708989,202.131194 C209.061112,201.523842 206.370749,198.392816 206.319439,194.695081 C206.319439,190.453742 209.770272,187.002909 213.98928,187.002909 L214.367413,187.057991 L215.068596,186.679859 L232.535647,192.280391 L222.516619,156.432221 L224.520425,153.081132 C235.127301,137.874425 240.805419,119.775749 240.786085,101.23527 C240.744401,62.3039785 216.089852,27.6542211 179.321659,14.8557693 C176.248958,12.9859479 174.824262,10.525108 174.824262,7.9094421 C174.828365,3.79195806 178.165221,0.455101283 182.282705,0.45099807 L182.695078,0.540320906 L183.552576,0.229180014 L184.253759,0.517990052 C227.149489,15.4051038 255.917347,55.8191515 255.938189,101.226337 C255.956124,121.712171 250.022906,141.762123 238.859693,158.939211 L248.00038,188.574988 C249.569482,193.862891 248.122455,199.530415 244.236918,203.369802 C241.475059,206.209865 237.679216,207.80803 233.717683,207.798718 Z" id="Shape"></path>
        </g>
    </g>
</svg>