<?xml version="1.0" encoding="UTF-8"?>
<svg width="256px" height="256px" viewBox="0 0 256 256" version="1.1" xmlns="http://www.w3.org/2000/svg" xmlns:xlink="http://www.w3.org/1999/xlink">
    <!-- Generator: Sketch 49.3 (51167) - http://www.bohemiancoding.com/sketch -->
    <title>Untitled 3</title>
    <desc>Created with Sketch.</desc>
    <defs></defs>
    <g id="Page-1" stroke="none" stroke-width="1" fill="none" fill-rule="evenodd">
        <g id="标签" transform="translate(6.000000, 6.000000)" fill="#646464" fill-rule="nonzero">
            <path d="M244.775229,97.5494253 L241.178899,37.6229885 C240.279817,19.6 225.444954,4.73103448 207.463303,3.82988506 L147.674312,0.225287356 C137.334862,-0.225287356 127.444954,3.37931034 120.252294,10.5885057 L10.5642202,120.078161 C-3.37155963,134.496552 -3.37155963,157.025287 10.5642202,170.993103 L73.9495413,234.524138 C87.8853211,248.491954 110.811927,248.491954 124.747706,234.524138 L233.986239,125.034483 C241.62844,117.825287 245.674312,107.912644 244.775229,97.5494253 Z M221.848624,112.418391 L112.16055,222.358621 C104.96789,229.567816 93.7293578,229.567816 86.5366972,222.358621 L23.1513761,158.377011 C15.9587156,151.167816 15.9587156,139.903448 23.1513761,132.694253 L132.83945,23.2045977 C136.43578,19.6 141.380734,17.7977011 146.775229,17.7977011 L207.013761,21.4022989 C216.004587,21.8528736 223.197248,29.062069 224.09633,38.5241379 L227.692661,98.4505747 C227.243119,103.857471 225.444954,108.813793 221.848624,112.418391 Z" id="Shape"></path>
            <path d="M133.288991,61.0528736 C119.353211,75.0206897 119.353211,98 133.288991,111.967816 C147.224771,125.935632 170.151376,125.935632 184.087156,111.967816 C198.022936,98 198.022936,75.0206897 184.087156,61.0528736 C170.151376,47.0850575 147.224771,47.0850575 133.288991,61.0528736 Z M171.050459,99.3517241 C163.857798,106.56092 152.619266,106.56092 145.426606,99.3517241 C138.233945,92.1425287 138.233945,80.8781609 145.426606,73.6689655 C152.619266,66.4597701 163.857798,66.4597701 171.050459,73.6689655 C178.243119,80.8781609 178.243119,92.1425287 171.050459,99.3517241 Z" id="Shape"></path>
        </g>
    </g>
</svg>