<?xml version="1.0" encoding="UTF-8"?>
<svg width="256px" height="256px" viewBox="0 0 256 256" version="1.1" xmlns="http://www.w3.org/2000/svg" xmlns:xlink="http://www.w3.org/1999/xlink">
    <!-- Generator: Sketch 49.3 (51167) - http://www.bohemiancoding.com/sketch -->
    <title>Untitled 2</title>
    <desc>Created with Sketch.</desc>
    <defs></defs>
    <g id="Page-1" stroke="none" stroke-width="1" fill="none" fill-rule="evenodd">
        <g id="话题" transform="translate(8.000000, 6.000000)" fill="#646464" fill-rule="nonzero">
            <path d="M7.32536588,72.9952823 L42.2960354,72.9952823 C46.2404767,72.9952823 49.4499617,69.6886751 49.4499617,65.7386681 C49.4499617,61.7872695 46.2404767,58.479271 42.2960354,58.479271 L7.32536588,58.4792708 C3.38092461,58.4792708 0.172274251,61.7869911 0.172274251,65.7386678 C0.172552727,69.6886751 3.38120281,72.9952823 7.32536588,72.9952823 Z" id="Shape"></path>
            <path d="M233.05043,58.4792708 L172.282825,58.4792708 L180.05594,6.70534827 C180.611123,2.79457972 177.884744,0.664570197 173.978428,0.107996114 C173.642257,0.0606873226 173.300521,0.788129681 172.961845,0.788129681 C169.428156,0.788129681 166.387869,0.802878835 165.890292,4.31291395 L157.830819,58.4792708 L110.281573,58.4792708 C106.623767,58.4792708 103.647765,61.7881044 103.647765,65.7378332 C103.647765,69.6870053 106.623767,72.9952823 110.281573,72.9952823 L155.797653,72.9952823 L143.243288,167.349357 L94.1704197,167.349357 C90.512614,167.349357 87.5360553,170.657912 87.5360553,174.607919 C87.5360553,178.556813 90.512614,181.865368 94.1704197,181.865368 L141.210401,181.865368 L133.431441,236.564645 C132.877372,240.474022 135.603472,244.048341 139.509788,244.604637 C139.848185,244.653338 140.189644,244.647772 140.526093,244.647772 C144.060339,244.647772 147.099234,242.105897 147.597924,238.595306 L155.662684,181.865368 L216.93872,181.865368 C220.597917,181.865368 223.575311,178.556813 223.575311,174.607919 C223.575311,170.657634 220.597917,167.349356 216.93872,167.349356 L157.69585,167.349357 L170.249381,72.9952825 L233.050151,72.9952825 C236.708792,72.9952825 239.686185,69.6870056 239.686185,65.7378335 C239.686464,61.7881044 236.70907,58.4792708 233.05043,58.4792708 Z" id="Shape"></path>
            <path d="M87.4186182,1.61185939 C87.0827255,1.5645506 86.7407108,1.54006132 86.4045399,1.54006132 C82.8680676,1.54006132 79.8266678,4.21467863 79.3293688,7.72332218 L56.682365,167.349079 L7.32536588,167.349079 C3.38092461,167.349079 0.172274251,170.657634 0.172274251,174.607641 C0.172274251,178.556535 3.38092434,181.86509 7.32536588,181.86509 L54.6489213,181.86509 L46.8699622,236.564367 C46.316171,240.473744 49.041993,244.048063 52.9469174,244.604359 C53.286706,244.653059 53.6287207,244.647493 53.9623869,244.647493 C57.4969113,244.647493 60.5371978,241.984564 61.036445,238.473972 L93.4947387,9.72058877 C94.0499215,5.80982022 91.3240995,2.16843374 87.4186182,1.61185939 Z" id="Shape"></path>
        </g>
    </g>
</svg>